<svg width="41" height="44" viewBox="0 0 41 44" fill="none" xmlns="http://www.w3.org/2000/svg">
<path d="M3.99522 13.877C2.47261 13.877 1.23828 15.2016 1.23828 16.8357C1.23828 18.4697 2.47261 19.7943 3.99522 19.7943C2.47261 19.7943 1.23828 21.1187 1.23828 22.7527C1.23828 24.3867 2.47261 25.7114 3.99522 25.7114H7.95624V13.6625L3.99522 13.877Z" fill="#DD9F68"/>
<path d="M13.0029 37.956C13.2037 38.2067 13.4125 38.4495 13.6307 38.6837C15.8053 41.0173 18.8083 42.46 22.1264 42.46C28.762 42.46 34.1404 36.6872 34.1404 29.566" fill="#DD9F68"/>
<path d="M26.204 3.92829V32.8762H21.3266C21.4869 33.2303 21.6751 33.569 21.8901 33.8884C22.1752 34.3126 22.3384 34.8175 22.3384 35.3416V35.5236C22.3384 36.867 21.3234 37.9563 20.0716 37.9563H6.22028C4.99119 37.9563 3.99512 36.887 3.99512 35.5689V3.92829C3.99512 2.60927 4.99119 1.54 6.22028 1.54H23.9803C25.2076 1.54 26.204 2.60927 26.204 3.92829V3.92829Z" fill="#FF001A"/>
<path d="M8.15511 37.9563H6.22028C4.99119 37.9563 3.99512 36.887 3.99512 35.5689V3.92829C3.99512 2.60927 4.99119 1.54 6.22028 1.54H8.15511C6.92602 1.54 5.92966 2.60927 5.92966 3.92829V35.5689C5.92966 36.887 6.92602 37.9563 8.15511 37.9563V37.9563Z" fill="#F5F5F7"/>
<path d="M3.99463 5.20361H26.2035V31.22H3.99463V5.20361Z" fill="#6ADBBD"/>
<path d="M23.6188 5.20361L3.99463 26.2643V15.6006L13.6828 5.20361H23.6188Z" fill="#A6F7E0"/>
<path d="M26.2035 7.17418V12.5065L8.76554 31.22H3.99463V31.009L26.2035 7.17418Z" fill="#A6F7E0"/>
<path d="M3.99463 5.20361H5.92946V31.22H3.99463V5.20361Z" fill="#4FBF9F"/>
<path d="M3.99463 4.65321H4.93514V31.7704H3.99463V4.65321Z" fill="#F5F5F7"/>
<path d="M24.2686 5.20361H26.2034V31.22H24.2686V5.20361Z" fill="#A6F7E0"/>
<path d="M25.2632 4.65321H26.2037V31.7704H25.2632V4.65321Z" fill="#FF001A"/>
<path d="M18.9682 14.5869C17.84 15.7976 17.84 17.7604 18.9682 18.9711L23.3274 23.6496C22.9446 23.9522 22.5842 24.3031 22.254 24.7027C20.0457 27.3782 20.085 31.8469 22.3384 34.4791C24.9548 37.5348 29.372 37.6347 32.1062 34.7788C33.4694 33.3548 34.1432 31.4633 34.1411 29.566C34.1388 27.6607 33.4554 25.7495 32.1045 24.2999L23.0537 14.5869C21.9256 13.3759 20.0963 13.3759 18.9682 14.5869V14.5869Z" fill="#FFC994"/>
<path d="M23.3271 23.6499L18.9678 18.9708C18.4038 18.3654 18.1216 17.5721 18.1216 16.7789C18.1216 15.9856 18.4038 15.1923 18.9678 14.5869C18.8803 14.6809 18.839 14.8158 18.839 14.9828C18.839 15.5906 19.3905 16.6171 20.2758 17.5672L23.3271 20.8424C24.0494 21.6176 24.0494 22.8745 23.3271 23.6499Z" fill="#DD9F68"/>
<path d="M32.1812 34.6985C32.157 34.7263 32.1312 34.7522 32.1061 34.7791C30.0549 36.921 27.0577 38.8111 24.5835 37.6272C23.7588 37.2326 22.9923 35.243 22.3383 34.4791C20.0846 31.8466 20.0456 27.3782 22.2539 24.7033C22.3406 24.5984 22.4288 24.496 22.5204 24.398C22.4727 24.4507 22.4264 24.5063 22.3828 24.565C21.1895 26.1506 22.1195 29.6631 24.416 32.2494C27.0819 35.252 30.5652 36.3538 32.1344 34.7482C32.1498 34.7322 32.1655 34.7154 32.1812 34.6985V34.6985Z" fill="#DD9F68"/>
<path d="M16.8815 35.0176H13.3176C13.0587 35.0176 12.8486 34.7926 12.8486 34.515C12.8486 34.2373 13.0587 34.012 13.3176 34.012H16.8815C17.1401 34.012 17.3502 34.2373 17.3502 34.515C17.3502 34.7926 17.1401 35.0176 16.8815 35.0176Z" fill="#F5F5F7"/>
<path d="M16.8815 4.03818H13.3176C13.0587 4.03818 12.8486 3.81292 12.8486 3.53524C12.8486 3.25756 13.0587 3.03229 13.3176 3.03229H16.8815C17.1401 3.03229 17.3502 3.25756 17.3502 3.53524C17.3502 3.81292 17.1401 4.03818 16.8815 4.03818Z" fill="#F5F5F7"/>
</svg>
