<svg width="22" height="22" viewBox="0 0 22 22" fill="none" xmlns="http://www.w3.org/2000/svg">
<path fill-rule="evenodd" clip-rule="evenodd" d="M9.96707 0.0277359C8.62605 0.139615 6.90222 0.66571 5.68734 1.33385C4.15902 2.17437 2.70093 3.52297 1.75443 4.97146C1.09983 5.97321 0.453753 7.50154 0.221319 8.59819C0.173282 8.82486 0.10414 9.14632 0.0675904 9.31254C-0.022932 9.72473 -0.0223824 12.3112 0.0683599 12.7195C0.105294 12.8857 0.172458 13.2072 0.217582 13.4338C0.420721 14.4539 1.10263 16.0631 1.75443 17.0606C3.11166 19.1376 5.18285 20.718 7.58353 21.5085C8.65738 21.862 9.28301 21.9602 10.6614 21.9915C12.3488 22.0298 12.9536 21.951 14.3743 21.5078C15.1794 21.2567 16.3667 20.6835 17.1278 20.1787C19.0881 18.8784 20.6715 16.8165 21.4291 14.5778C22.0521 12.7366 22.1729 10.5309 21.7536 8.65314C21.4437 7.26537 20.9922 6.18581 20.2228 4.99339C19.0399 3.16024 17.1266 1.58998 15.0831 0.775171C14.3081 0.466185 13.3023 0.198467 12.5026 0.0882912C11.8824 0.00284326 10.6253 -0.0272145 9.96707 0.0277359ZM14.2898 4.20869C14.3111 4.36343 14.3107 4.92843 14.289 5.4642L14.2494 6.43842L13.3727 6.47457C12.4653 6.51194 12.2257 6.56958 12.1479 6.76905C12.1269 6.82307 12.0953 7.23432 12.0777 7.68299C12.0517 8.34943 12.06 8.50769 12.1231 8.54763C12.1656 8.5745 12.6678 8.59687 13.2391 8.59736L14.2778 8.59819L14.2423 9.10648C14.2021 9.6806 14.0994 10.7058 14.0633 10.8924C14.0405 11.0106 14.0137 11.0164 13.4497 11.0266C13.1253 11.0324 12.7981 11.0338 12.7225 11.0298C12.6469 11.0257 12.4799 11.0349 12.3515 11.0501L12.1179 11.0777L12.1175 14.2477C12.1173 15.9912 12.1014 17.5847 12.0821 17.7886L12.0471 18.1596H10.6313H9.21546L9.17622 17.5832C9.15457 17.2662 9.15011 15.7004 9.16633 14.1035C9.18249 12.5065 9.17825 11.1717 9.15693 11.1372C9.13192 11.0967 8.86492 11.0689 8.40576 11.0589L7.69346 11.0435L7.67867 9.82084L7.66389 8.59819H8.29342C8.63963 8.59819 8.98638 8.57406 9.06393 8.54461L9.20491 8.49104V7.31092C9.20491 6.64646 9.2319 6.00359 9.26669 5.83962C9.40343 5.19544 9.85528 4.59989 10.4223 4.31662C10.9933 4.03131 11.6151 3.944 13.1433 3.93438L14.2511 3.9274L14.2898 4.20869Z" fill="#D32416"/>
</svg>
