<svg width="102" height="39" viewBox="0 0 102 39" fill="none" xmlns="http://www.w3.org/2000/svg">
<path d="M30.1095 38.4368H9.89051C4.42778 38.4368 0 34.2778 0 29.1467V9.2901C0 4.15899 4.42778 0 9.89051 0H30.1095C35.5722 0 40 4.15899 40 9.2901V29.1467C40 34.2778 35.5722 38.4368 30.1095 38.4368Z" fill="#D32416"/>
<path d="M4.74609 23.2886C4.74609 22.5193 5.41206 21.8938 6.23102 21.8938H18.5124C19.3314 21.8938 19.9973 22.5193 19.9973 23.2886C19.9973 24.0578 19.3314 24.6834 18.5124 24.6834H6.23102C5.41206 24.6834 4.74609 24.0578 4.74609 23.2886Z" fill="white"/>
<path d="M34.3125 22.0573C34.3125 22.0573 32.6475 22.0573 30.8596 22.0573C28.8617 22.0179 26.6509 20.5949 26.6509 17.7631L26.6329 11.7866C26.6329 11.0174 25.9819 10.3918 25.1809 10.3918C24.38 10.3918 23.729 11.0174 23.729 11.7866V18.5351C23.729 19.8144 24.275 21.119 24.9979 22.1165C25.4449 22.7279 26.1679 23.3957 26.8938 23.8438C28.0218 24.5426 29.0717 24.8215 30.6946 24.9117L34.3125 24.8581C36.2084 24.8863 36.2024 22.0319 34.3125 22.0573Z" fill="white"/>
<path d="M4.74609 17.5376C4.74609 16.7684 5.41206 16.1428 6.23102 16.1428H18.5124C19.3314 16.1428 19.9973 16.7684 19.9973 17.5376C19.9973 18.3069 19.3314 18.9324 18.5124 18.9324H6.23102C5.41206 18.9324 4.74609 18.3069 4.74609 17.5376Z" fill="white"/>
<path d="M4.74609 11.7866C4.74609 11.0174 5.41206 10.3918 6.23102 10.3918H18.5124C19.3314 10.3918 19.9973 11.0174 19.9973 11.7866C19.9973 12.5559 19.3314 13.1814 18.5124 13.1814H6.23102C5.41206 13.1814 4.74609 12.5559 4.74609 11.7866Z" fill="white"/>
<path d="M50.6598 9.0225C51.2374 9.02531 51.7214 9.20283 52.1119 9.55787C52.5024 9.9129 52.7153 10.3553 52.7573 10.8822L52.7476 13.0631L58.0688 13.08C58.6658 13.0829 59.1499 13.266 59.521 13.6295C59.8921 13.993 60.076 14.4213 60.0728 14.9144C60.0695 15.3878 59.863 15.8104 59.45 16.1796C59.0369 16.5515 58.5722 16.7375 58.0559 16.7347L52.7347 16.7178L52.725 19.7186C52.725 20.1357 52.8089 20.533 52.9832 20.9049C53.1574 21.2797 53.3995 21.6122 53.706 21.9024C54.0158 22.1954 54.3804 22.4237 54.8032 22.5871C55.2259 22.7505 55.6841 22.8351 56.1779 22.8379C56.7135 22.8407 57.1717 22.7787 57.5558 22.6519C57.9365 22.5251 58.2721 22.3363 58.5626 22.0827C58.9982 21.7559 59.4758 21.5896 60.0018 21.584C60.5278 21.5755 61.015 21.7559 61.47 22.1194C61.6766 22.2828 61.8282 22.4716 61.9315 22.6801C62.0348 22.8886 62.0896 23.1084 62.0993 23.3338C62.109 23.562 62.0703 23.7846 61.9896 24.0016C61.9057 24.2186 61.7701 24.4102 61.5862 24.5736C60.8634 25.1907 60.0663 25.6613 59.1983 25.9853C58.3302 26.3093 57.4041 26.47 56.4134 26.4671C55.3421 26.4643 54.332 26.3009 53.3833 25.9797C52.4346 25.6585 51.602 25.202 50.8824 24.6074C50.1628 24.0157 49.5917 23.3028 49.1722 22.4744C48.7527 21.646 48.5332 20.7218 48.5171 19.7046L48.5494 10.7329C48.5526 10.2426 48.7623 9.83401 49.1883 9.50715C49.6142 9.18311 50.1047 9.01968 50.6598 9.0225Z" fill="black"/>
<path d="M71.8323 13.3394C72.7584 13.4323 73.6297 13.6719 74.4429 14.0551C75.2561 14.4383 75.9563 14.9286 76.5404 15.5203C77.1245 16.112 77.5859 16.7883 77.9248 17.5434C78.2636 18.2986 78.4282 19.096 78.4249 19.9329L78.4088 24.7597C78.4056 25.25 78.1991 25.6698 77.786 26.0136C77.373 26.3573 76.9083 26.5292 76.392 26.5264C75.6691 26.5236 75.0947 26.2305 74.6623 25.6473C74.5591 25.6839 74.4655 25.7233 74.3848 25.7684C74.3009 25.8135 74.2202 25.8558 74.1363 25.8896C73.6394 26.0868 73.136 26.2418 72.6197 26.3489C72.084 26.456 71.5161 26.5095 70.9191 26.5067C69.3734 26.501 67.9922 26.1291 66.7789 25.3909C65.5656 24.6498 64.662 23.6974 64.0683 22.5308C63.865 22.1138 63.7036 21.6855 63.5939 21.2488C63.481 20.812 63.4261 20.3584 63.4293 19.885C63.4326 19.4116 63.4906 18.9579 63.6036 18.5212C63.7198 18.0844 63.8811 17.659 64.0876 17.2419C64.6911 16.0613 65.6011 15.1089 66.8209 14.3876C68.0406 13.6634 69.4218 13.3055 70.9707 13.3084C71.1353 13.3084 71.2837 13.3084 71.4192 13.3084C71.5483 13.3112 71.6871 13.3225 71.8323 13.3394ZM70.8997 22.9648C71.3741 22.9676 71.8226 22.8915 72.2453 22.7365C72.6681 22.5844 73.0359 22.3702 73.3457 22.0997C73.6555 21.8292 73.904 21.5052 74.0912 21.1332C74.2783 20.7613 74.3719 20.3555 74.3751 19.9216C74.3751 19.5215 74.2848 19.1355 74.1008 18.7607C73.9169 18.3888 73.6652 18.0591 73.3457 17.7773C73.0263 17.4955 72.6552 17.2701 72.2357 17.1067C71.8129 16.9404 71.3741 16.8587 70.9223 16.8559C70.4673 16.8559 70.0349 16.9348 69.6218 17.0982C69.2088 17.2617 68.8409 17.4814 68.5215 17.7632C68.202 18.045 67.9471 18.3719 67.7599 18.7438C67.5727 19.1157 67.4792 19.5018 67.4759 19.9019C67.4759 20.3189 67.5695 20.7162 67.7663 21.0882C67.96 21.4601 68.2181 21.7841 68.5376 22.0575C68.857 22.3308 69.2217 22.5506 69.6347 22.714C70.0446 22.8802 70.4673 22.9648 70.8997 22.9648Z" fill="black"/>
<path d="M92.2747 13.8916C92.6684 13.5478 93.1266 13.3816 93.6526 13.3929C94.1786 13.4041 94.6465 13.5817 95.0595 13.9282C95.4306 14.2579 95.6146 14.6665 95.6114 15.1568C95.6081 15.6471 95.421 16.0669 95.0499 16.4107L91.0162 19.9723L95.0241 23.5565C95.3952 23.8861 95.5888 24.3003 95.6081 24.7991C95.6275 25.2978 95.4307 25.7318 95.0144 26.0924C94.6433 26.4193 94.1721 26.5799 93.6042 26.5799C93.0363 26.5771 92.549 26.3855 92.1359 26.0023L88.1281 22.4998L84.0944 26.0614C83.7233 26.3517 83.2586 26.5151 82.7004 26.5489C82.1421 26.5827 81.6581 26.4193 81.2482 26.053C80.8771 25.7233 80.6771 25.3204 80.648 24.8385C80.619 24.3567 80.7997 23.934 81.1934 23.5705L85.3206 19.9554L81.2192 16.3149C80.8287 15.9683 80.6545 15.5682 80.6964 15.1145C80.7384 14.6609 80.9352 14.2523 81.2902 13.8888C81.7452 13.4915 82.2292 13.3083 82.7455 13.3478C83.2619 13.3844 83.7233 13.5676 84.1364 13.8972L88.1442 17.4561L92.2747 13.8916Z" fill="black"/>
<path d="M100.041 13.4802C100.577 13.4802 101.025 13.6549 101.384 14.0015C101.742 14.3481 101.942 14.7679 101.984 15.2582L101.948 24.9118C101.945 25.4021 101.771 25.8107 101.416 26.1375C101.064 26.4644 100.59 26.6447 99.9927 26.6785C99.4571 26.6757 99.0021 26.5292 98.6342 26.239C98.2631 25.9488 98.0372 25.5374 97.9565 25.0104L97.992 15.1371C98.034 14.6637 98.2534 14.2748 98.6471 13.9677C99.0376 13.6578 99.5022 13.4943 100.041 13.4802ZM100.057 9.30716C100.593 9.30716 101.051 9.4875 101.432 9.84253C101.813 10.1976 102.003 10.6118 102 11.0852C101.997 11.5585 101.806 11.9699 101.422 12.325C101.038 12.6772 100.58 12.8547 100.044 12.8519C99.4442 12.8322 98.9569 12.6631 98.5761 12.3419C98.1953 12.0235 98.0049 11.5726 98.0082 10.9894C98.0308 10.516 98.2437 10.1187 98.6471 9.79182C99.0505 9.46778 99.5184 9.30435 100.057 9.30716Z" fill="black"/>
</svg>
