<svg width="22" height="22" viewBox="0 0 22 22" fill="none" xmlns="http://www.w3.org/2000/svg">
<path fill-rule="evenodd" clip-rule="evenodd" d="M9.95463 0.0267109C6.5121 0.384655 3.49505 2.25799 1.66227 5.17561C-0.936999 9.31346 -0.446285 14.8071 2.84233 18.3864C4.67011 20.3757 6.93371 21.5588 9.65295 21.9461C10.1641 22.0189 11.8546 22.0177 12.3854 21.9442C15.0634 21.5732 17.3252 20.3928 19.1498 18.4136C20.65 16.7864 21.6126 14.702 21.946 12.3588C22.018 11.8523 22.018 10.1529 21.946 9.64643C21.6915 7.85735 21.1252 6.33641 20.1845 4.91493C19.7844 4.31037 19.3848 3.82262 18.8281 3.25927C17.1079 1.5185 14.9847 0.447168 12.536 0.0844021C12.0081 0.00617447 10.4804 -0.0279236 9.95463 0.0267109ZM13.3966 5.16774C14.5293 5.21367 15.2644 5.49429 15.889 6.11934C16.3513 6.58182 16.6074 7.07491 16.7594 7.79514C16.904 8.48008 16.9036 13.516 16.7589 14.2125C16.6118 14.921 16.3161 15.479 15.8476 15.9322C15.4101 16.3554 14.9028 16.6114 14.2141 16.7565C13.5214 16.9025 8.49871 16.9025 7.8002 16.7565C7.09081 16.6083 6.53422 16.313 6.08145 15.8444C5.65847 15.4067 5.40257 14.8991 5.25756 14.2101C5.11018 13.5098 5.10945 8.45945 5.25661 7.7929C5.41264 7.08644 5.66006 6.59684 6.08145 6.1608C6.53942 5.68687 7.09193 5.39605 7.82133 5.24497C8.33791 5.13794 11.5617 5.0933 13.3966 5.16774ZM8.55568 6.22521C8.0299 6.26189 7.77667 6.31924 7.40325 6.4862C6.89666 6.71266 6.46976 7.26124 6.32165 7.87608C6.22943 8.25895 6.19157 9.15227 6.19092 10.9596C6.19019 13.0965 6.23129 13.832 6.3772 14.2917C6.61249 15.033 7.0801 15.4712 7.85309 15.6747C8.24449 15.7777 9.20806 15.8228 11.0084 15.8225C13.9184 15.822 14.4769 15.7393 15.0643 15.222C15.5162 14.824 15.7208 14.2939 15.7849 13.3556C15.8391 12.5615 15.839 9.38238 15.7848 8.62977C15.6663 6.98548 15.0243 6.34231 13.3837 6.22396C12.7191 6.176 9.24756 6.1769 8.55568 6.22521ZM14.4972 7.26877C14.8363 7.49739 14.9346 7.88245 14.7406 8.2212C14.4912 8.65634 13.808 8.66529 13.5469 8.23683C13.4361 8.05493 13.4333 7.717 13.5409 7.51461C13.7113 7.19416 14.2001 7.06849 14.4972 7.26877ZM11.924 8.13079C12.8437 8.42768 13.5728 9.15601 13.8819 10.0865C13.9778 10.3749 13.9936 10.4991 13.9961 10.9811C13.9985 11.4513 13.983 11.5924 13.8988 11.8637C13.6006 12.825 12.9071 13.5337 11.9335 13.872C11.6231 13.9799 11.5322 13.9916 11.0084 13.9916C10.4845 13.9916 10.3937 13.9799 10.0832 13.872C9.12591 13.5393 8.47302 12.8861 8.14057 11.9282C8.03274 11.6177 8.02099 11.5267 8.02099 11.0026C8.02099 10.4791 8.03282 10.3872 8.14023 10.077C8.50577 9.02091 9.29842 8.30519 10.3845 8.05062C10.7799 7.95793 11.5056 7.99568 11.924 8.13079ZM10.3354 9.16798C9.13383 9.61483 8.67659 11.1259 9.4322 12.1528C9.81487 12.6729 10.3496 12.94 11.0084 12.94C12.1199 12.94 12.9447 12.1147 12.9447 11.0026C12.9447 10.1528 12.4583 9.45256 11.6689 9.16587C11.2857 9.02672 10.7128 9.02763 10.3354 9.16798Z" fill="#D32416"/>
</svg>
