<svg width="23" height="23" viewBox="0 0 23 23" fill="none" xmlns="http://www.w3.org/2000/svg">
<path fill-rule="evenodd" clip-rule="evenodd" d="M9.30406 0.115815C4.25806 1.00326 0.61071 4.93363 0.0565872 10.0808C-0.162274 12.1133 0.252833 14.1342 1.31751 16.2201C1.91899 17.3984 2.50643 18.1923 3.41576 19.0561C7.24726 22.6958 13.0492 23.1518 17.4573 20.1601C19.2415 18.9491 20.8853 16.7371 21.5885 14.6006C22.0291 13.2619 22.152 12.4879 22.152 11.0509C22.152 8.67348 21.5591 6.80979 20.1208 4.66594C18.6846 2.52551 16.4355 1.00409 13.6378 0.280584C12.5023 -0.0130466 10.4748 -0.0901234 9.30406 0.115815ZM16.3992 6.80471C16.5007 6.90625 16.5838 7.07489 16.5838 7.17939C16.5838 7.40895 14.775 15.9554 14.6361 16.3824C14.5214 16.7348 14.3017 16.8781 13.9911 16.8029C13.8686 16.7734 13.1319 16.2743 12.3539 15.6938L10.9394 14.6385L10.18 15.3675C9.76237 15.7685 9.32548 16.1215 9.20917 16.152L8.99769 16.2073L9.06194 15.2675C9.0972 14.7506 9.15295 14.0962 9.18572 13.8131L9.24535 13.2984L11.8635 10.9054C13.535 9.3776 14.4279 8.5016 14.3331 8.48268C14.2514 8.46625 12.7216 9.37299 10.9335 10.4976L7.6824 12.5422L6.24849 12.1084C5.45982 11.8698 4.74185 11.6366 4.65305 11.5903C4.42763 11.4725 4.45154 11.1732 4.6992 11.0137C4.81339 10.94 6.17382 10.3919 7.72228 9.79557C9.27074 9.19926 11.7423 8.2436 13.2146 7.67194C14.6869 7.10028 15.9642 6.62979 16.053 6.62637C16.1419 6.62286 16.2977 6.70317 16.3992 6.80471Z" fill="#D32416"/>
</svg>
