<svg width="22" height="22" viewBox="0 0 22 22" fill="none" xmlns="http://www.w3.org/2000/svg">
<path fill-rule="evenodd" clip-rule="evenodd" d="M9.47088 0.0642523C4.52337 0.675639 0.634979 4.64386 0.122959 9.60418C0.0470864 10.3393 0.0930415 11.7313 0.216442 12.4339C0.411762 13.5463 0.734975 14.5251 1.23734 15.5252L1.48975 16.0279L0.737625 18.7749C0.32394 20.2858 -0.0078979 21.5268 0.000143109 21.5328C0.00822904 21.5387 1.26815 21.2125 2.79999 20.8078C5.03 20.2187 5.60751 20.0806 5.69745 20.1149C5.75921 20.1384 6.05233 20.2677 6.34881 20.4021C7.31176 20.8387 8.32299 21.1283 9.38706 21.2722C10.1266 21.3722 11.4244 21.3716 12.1437 21.2709C14.5049 20.9404 16.6144 19.8964 18.277 18.2354C19.1465 17.3669 19.7247 16.5725 20.2751 15.49C20.7707 14.5152 21.1205 13.4525 21.3159 12.3273C21.4302 11.6696 21.43 9.73719 21.3156 9.048C21.1224 7.88367 20.8242 6.95343 20.3147 5.92593C18.8648 3.00192 16.1872 0.917544 12.9857 0.220625C11.9878 0.00338312 10.4994 -0.0628318 9.47088 0.0642523ZM12.2785 1.92348C13.5671 2.16179 14.6357 2.59228 15.6926 3.29885C17.4969 4.50519 18.8251 6.37843 19.3501 8.45723C19.7357 9.98386 19.7053 11.7178 19.2674 13.1858C18.5594 15.5593 16.8719 17.5572 14.6637 18.6363C13.3798 19.2637 12.1918 19.5373 10.7512 19.5373C9.09992 19.5373 7.63614 19.1366 6.14222 18.2756L5.89065 18.1307L4.2374 18.5651C3.32809 18.804 2.57722 18.9925 2.56877 18.9841C2.56033 18.9757 2.74689 18.2642 2.98336 17.403C3.21978 16.5418 3.41497 15.8055 3.41708 15.7668C3.41919 15.7281 3.30293 15.5044 3.15873 15.2697C1.04013 11.8216 1.59541 7.2744 4.48622 4.39859C5.92421 2.96805 7.74471 2.08893 9.78533 1.83961C10.3365 1.77227 11.7108 1.8185 12.2785 1.92348ZM6.55756 5.8431C6.29778 5.97171 5.82309 6.53233 5.62463 6.94494C5.2348 7.75542 5.24275 8.77708 5.64624 9.72309C6.14208 10.8856 7.43942 12.5362 8.72015 13.6339C9.61786 14.4034 10.3679 14.8542 11.4699 15.2867C12.5956 15.7285 12.8115 15.7794 13.5588 15.7791C14.1465 15.7789 14.2397 15.7677 14.513 15.6647C14.9623 15.4955 15.2976 15.2822 15.6317 14.9533C15.8909 14.6981 15.9431 14.6183 16.028 14.3469C16.1338 14.0085 16.1943 13.4639 16.147 13.2754C16.1222 13.1768 15.9953 13.0968 15.3571 12.7773C14.1878 12.1918 13.7165 11.9904 13.5162 11.9904C13.3521 11.9904 13.3241 12.0105 13.1257 12.2711C12.6721 12.8669 12.2559 13.3283 12.1475 13.3556C12.0176 13.3881 11.7624 13.2947 11.173 12.9987C10.2187 12.5194 9.44006 11.8785 8.77068 11.0212C8.40637 10.5546 8.0783 10.0229 8.0783 9.89909C8.0783 9.84604 8.24721 9.5823 8.45367 9.31304C8.85828 8.78525 8.97674 8.58832 8.97674 8.44335C8.97674 8.3925 8.88901 8.14386 8.78178 7.89086C8.67455 7.63781 8.4583 7.11748 8.30121 6.73452C8.10647 6.25988 7.96977 5.99174 7.87175 5.89224L7.72791 5.74624L7.24051 5.74629C6.83195 5.74629 6.72148 5.76197 6.55756 5.8431Z" fill="#D32416"/>
</svg>
