<svg width="102" height="40" viewBox="0 0 102 40" fill="none" xmlns="http://www.w3.org/2000/svg">
<path d="M30.1095 39.6821H9.89051C4.42778 39.6821 0 35.4458 0 30.2193V9.99346C0 4.76695 4.42778 0.53064 9.89051 0.53064H30.1095C35.5722 0.53064 40 4.76695 40 9.99346V30.2193C40 35.4458 35.5722 39.6821 30.1095 39.6821Z" fill="#D32416"/>
<path d="M4.74609 24.2523C4.74609 23.4687 5.41206 22.8315 6.23102 22.8315H18.5124C19.3314 22.8315 19.9973 23.4687 19.9973 24.2523C19.9973 25.0358 19.3314 25.673 18.5124 25.673H6.23102C5.41206 25.673 4.74609 25.0358 4.74609 24.2523Z" fill="white"/>
<path d="M34.3125 22.9981C34.3125 22.9981 32.6475 22.9981 30.8596 22.9981C28.8617 22.9579 26.6509 21.5085 26.6509 18.624L26.6329 12.5364C26.6329 11.7529 25.9819 11.1157 25.1809 11.1157C24.38 11.1157 23.729 11.7529 23.729 12.5364V19.4104C23.729 20.7134 24.275 22.0423 24.9979 23.0583C25.4449 23.6812 26.1679 24.3614 26.8938 24.8177C28.0218 25.5295 29.0717 25.8137 30.6946 25.9055L34.3125 25.851C36.2084 25.8797 36.2024 22.9722 34.3125 22.9981Z" fill="white"/>
<path d="M4.74609 18.3942C4.74609 17.6107 5.41206 16.9735 6.23102 16.9735H18.5124C19.3314 16.9735 19.9973 17.6107 19.9973 18.3942C19.9973 19.1778 19.3314 19.8149 18.5124 19.8149H6.23102C5.41206 19.8149 4.74609 19.1778 4.74609 18.3942Z" fill="white"/>
<path d="M4.74609 12.5364C4.74609 11.7529 5.41206 11.1157 6.23102 11.1157H18.5124C19.3314 11.1157 19.9973 11.7529 19.9973 12.5364C19.9973 13.32 19.3314 13.9572 18.5124 13.9572H6.23102C5.41206 13.9572 4.74609 13.32 4.74609 12.5364Z" fill="white"/>
<path d="M50.6598 9.72086C51.2374 9.72373 51.7214 9.90455 52.1119 10.2662C52.5024 10.6278 52.7153 11.0784 52.7573 11.6151L52.7476 13.8366L58.0688 13.8538C58.6658 13.8567 59.1499 14.0433 59.521 14.4135C59.8921 14.7838 60.076 15.22 60.0728 15.7223C60.0695 16.2045 59.863 16.635 59.45 17.011C59.0369 17.3899 58.5722 17.5793 58.0559 17.5764L52.7347 17.5592L52.725 20.6159C52.725 21.0407 52.8089 21.4453 52.9832 21.8242C53.1574 22.2059 53.3995 22.5446 53.706 22.8402C54.0158 23.1387 54.3804 23.3712 54.8032 23.5377C55.2259 23.7041 55.6841 23.7902 56.1779 23.7931C56.7135 23.796 57.1717 23.7328 57.5558 23.6037C57.9365 23.4745 58.2721 23.2822 58.5626 23.0239C58.9982 22.691 59.4758 22.5216 60.0018 22.5159C60.5278 22.5073 61.015 22.691 61.47 23.0612C61.6766 23.2277 61.8282 23.42 61.9315 23.6324C62.0348 23.8448 62.0896 24.0686 62.0993 24.2983C62.109 24.5307 62.0703 24.7575 61.9896 24.9785C61.9057 25.1995 61.7701 25.3946 61.5862 25.5611C60.8634 26.1897 60.0663 26.669 59.1983 26.999C58.3302 27.3291 57.4041 27.4927 56.4134 27.4898C55.3421 27.487 54.332 27.3205 53.3833 26.9933C52.4346 26.6661 51.602 26.2012 50.8824 25.5956C50.1628 24.9928 49.5917 24.2667 49.1722 23.4229C48.7527 22.579 48.5332 21.6376 48.5171 20.6015L48.5494 11.463C48.5526 10.9636 48.7623 10.5475 49.1883 10.2145C49.6142 9.88446 50.1047 9.71799 50.6598 9.72086Z" fill="black"/>
<path d="M71.8323 14.1181C72.7584 14.2128 73.6297 14.4568 74.4429 14.8471C75.2561 15.2375 75.9563 15.7369 76.5404 16.3396C77.1245 16.9423 77.5859 17.6312 77.9248 18.4004C78.2636 19.1696 78.4282 19.9818 78.4249 20.8342L78.4088 25.7508C78.4056 26.2502 78.1991 26.6778 77.786 27.028C77.373 27.3781 76.9083 27.5532 76.392 27.5504C75.6691 27.5475 75.0947 27.249 74.6623 26.6549C74.5591 26.6922 74.4655 26.7324 74.3848 26.7783C74.3009 26.8242 74.2202 26.8673 74.1363 26.9017C73.6394 27.1026 73.136 27.2605 72.6197 27.3695C72.084 27.4786 71.5161 27.5331 70.9191 27.5303C69.3734 27.5245 67.9922 27.1457 66.7789 26.3937C65.5656 25.6388 64.662 24.6687 64.0683 23.4805C63.865 23.0557 63.7036 22.6195 63.5939 22.1746C63.481 21.7297 63.4261 21.2676 63.4293 20.7855C63.4326 20.3033 63.4906 19.8412 63.6036 19.3963C63.7198 18.9514 63.8811 18.518 64.0876 18.0933C64.6911 16.8907 65.6011 15.9206 66.8209 15.1858C68.0406 14.4482 69.4218 14.0837 70.9707 14.0866C71.1353 14.0866 71.2837 14.0866 71.4192 14.0866C71.5483 14.0894 71.6871 14.1009 71.8323 14.1181ZM70.8997 23.9225C71.3741 23.9254 71.8226 23.8479 72.2453 23.69C72.6681 23.535 73.0359 23.3169 73.3457 23.0414C73.6555 22.7658 73.904 22.4358 74.0912 22.0569C74.2783 21.6781 74.3719 21.2648 74.3751 20.8228C74.3751 20.4152 74.2848 20.022 74.1008 19.6403C73.9169 19.2614 73.6652 18.9256 73.3457 18.6386C73.0263 18.3516 72.6552 18.122 72.2357 17.9555C71.8129 17.7862 71.3741 17.7029 70.9223 17.7001C70.4673 17.7001 70.0349 17.7804 69.6218 17.9469C69.2088 18.1134 68.8409 18.3372 68.5215 18.6242C68.202 18.9113 67.9471 19.2442 67.7599 19.6231C67.5727 20.0019 67.4792 20.3951 67.4759 20.8027C67.4759 21.2275 67.5695 21.6321 67.7663 22.011C67.96 22.3899 68.2181 22.7199 68.5376 22.9983C68.857 23.2767 69.2217 23.5006 69.6347 23.6671C70.0446 23.8364 70.4673 23.9225 70.8997 23.9225Z" fill="black"/>
<path d="M92.2747 14.6806C92.6684 14.3305 93.1266 14.1611 93.6526 14.1726C94.1786 14.1841 94.6465 14.3649 95.0595 14.7179C95.4306 15.0537 95.6146 15.4699 95.6114 15.9693C95.6081 16.4687 95.421 16.8964 95.0499 17.2465L91.0162 20.8744L95.0241 24.5252C95.3952 24.861 95.5888 25.2829 95.6081 25.7909C95.6275 26.2989 95.4307 26.7409 95.0144 27.1083C94.6433 27.4412 94.1721 27.6048 93.6042 27.6048C93.0363 27.602 92.549 27.4068 92.1359 27.0164L88.1281 23.4489L84.0944 27.0767C83.7233 27.3723 83.2586 27.5388 82.7004 27.5732C82.1421 27.6077 81.6581 27.4412 81.2482 27.0681C80.8771 26.7323 80.6771 26.3219 80.648 25.8311C80.619 25.3403 80.7997 24.9098 81.1934 24.5395L85.3206 20.8571L81.2192 17.1489C80.8287 16.7959 80.6545 16.3884 80.6964 15.9263C80.7384 15.4642 80.9352 15.048 81.2902 14.6778C81.7452 14.2731 82.2292 14.0865 82.7455 14.1267C83.2619 14.164 83.7233 14.3506 84.1364 14.6864L88.1442 18.3113L92.2747 14.6806Z" fill="black"/>
<path d="M100.041 14.2614C100.577 14.2614 101.025 14.4394 101.384 14.7924C101.742 15.1454 101.942 15.5731 101.984 16.0725L101.948 25.9056C101.945 26.405 101.771 26.8211 101.416 27.1541C101.064 27.487 100.59 27.6707 99.9927 27.7051C99.4571 27.7023 99.0021 27.553 98.6342 27.2574C98.2631 26.9618 98.0372 26.5427 97.9565 26.006L97.992 15.9491C98.034 15.4669 98.2534 15.0708 98.6471 14.758C99.0376 14.4423 99.5022 14.2758 100.041 14.2614ZM100.057 10.0108C100.593 10.0108 101.051 10.1945 101.432 10.5561C101.813 10.9177 102.003 11.3396 102 11.8218C101.997 12.304 101.806 12.7231 101.422 13.0847C101.038 13.4435 100.58 13.6243 100.044 13.6214C99.4442 13.6013 98.9569 13.4291 98.5761 13.1019C98.1953 12.7776 98.0049 12.3184 98.0082 11.7242C98.0308 11.2421 98.2437 10.8374 98.6471 10.5044C99.0505 10.1744 99.5184 10.0079 100.057 10.0108Z" fill="black"/>
</svg>
