<svg width="13" height="13" viewBox="0 0 13 13" fill="none" xmlns="http://www.w3.org/2000/svg">
<path d="M6.5 0C4.21573 0 2.31055 1.84006 2.31055 4.18945C2.31055 5.08325 2.57913 5.88027 3.09458 6.62711L6.17939 11.4407C6.32904 11.6747 6.67126 11.6742 6.82061 11.4407L9.9188 6.61073C10.4232 5.89773 10.6895 5.06053 10.6895 4.18945C10.6895 1.87939 8.81006 0 6.5 0ZM6.5 6.09375C5.45002 6.09375 4.5957 5.23943 4.5957 4.18945C4.5957 3.13947 5.45002 2.28516 6.5 2.28516C7.54998 2.28516 8.4043 3.13947 8.4043 4.18945C8.4043 5.23943 7.54998 6.09375 6.5 6.09375Z" fill="#D32416"/>
<path d="M9.47741 8.75208L7.55963 11.7504C7.06321 12.5243 5.93402 12.5218 5.43999 11.7511L3.51909 8.75286C1.82899 9.14362 0.787109 9.85946 0.787109 10.7149C0.787109 12.1993 3.73059 13.0001 6.5 13.0001C9.26941 13.0001 12.2129 12.1993 12.2129 10.7149C12.2129 9.85885 11.1696 9.14263 9.47741 8.75208Z" fill="#D32416"/>
</svg>
