<svg width="18" height="8" viewBox="0 0 18 8" fill="none" xmlns="http://www.w3.org/2000/svg">
<path fill-rule="evenodd" clip-rule="evenodd" d="M13.8314 0.0767105C14.0079 0.184791 17.9053 3.58434 17.9558 3.67423C18.0745 3.88547 18.1033 3.85614 16.0136 5.64824C14.9438 6.56565 14.009 7.36545 13.9362 7.42556C13.7616 7.56981 13.577 7.57662 13.4359 7.44397L13.3393 7.35309L13.3292 6.19661L13.3191 5.04016H6.8018C1.82377 5.04016 0.262745 5.03084 0.192339 5.00065C0.00931549 4.92223 0 4.86341 0 3.7876C0 3.23639 0.0149403 2.7593 0.0336399 2.71302C0.113605 2.51514 -0.334131 2.52744 6.79839 2.52744H13.3191L13.3292 1.37099L13.3393 0.214513L13.4271 0.131957C13.5495 0.0169344 13.7002 -0.00363042 13.8314 0.0767105Z" fill="#D32416"/>
</svg>
