<svg width="40" height="46" viewBox="0 0 40 46" fill="none" xmlns="http://www.w3.org/2000/svg">
<path d="M39.2132 23.0361V29.2779C39.2122 29.6454 39.0814 29.9976 38.8493 30.2575C38.6172 30.5174 38.3026 30.6639 37.9744 30.665H29.3028C28.9745 30.6639 28.66 30.5174 28.4279 30.2575C28.1958 29.9976 28.0649 29.6454 28.064 29.2779V25.1167C28.0649 24.7492 28.1958 24.397 28.4279 24.1371C28.66 23.8772 28.9745 23.7308 29.3028 23.7297H36.7356V21.6491H37.9744C38.3026 21.6502 38.6172 21.7967 38.8493 22.0565C39.0814 22.3164 39.2122 22.6686 39.2132 23.0361ZM32.3998 27.1973C32.3998 26.923 32.3271 26.6548 32.191 26.4267C32.0549 26.1986 31.8614 26.0208 31.635 25.9158C31.4087 25.8108 31.1596 25.7834 30.9193 25.8369C30.679 25.8904 30.4583 26.0225 30.285 26.2165C30.1118 26.4105 29.9938 26.6576 29.946 26.9267C29.8982 27.1958 29.9227 27.4747 30.0165 27.7281C30.1102 27.9816 30.269 28.1982 30.4727 28.3506C30.6765 28.503 30.916 28.5844 31.161 28.5844C31.4892 28.5833 31.8037 28.4368 32.0359 28.1769C32.268 27.917 32.3988 27.5648 32.3998 27.1973Z" fill="#FF1300"/>
<path d="M34.0351 1.53673L39.2133 18.0288L36.7357 19.0206V14.7138C36.7347 14.3462 36.6039 13.9941 36.3718 13.7342C36.1397 13.4743 35.8251 13.3278 35.4969 13.3267H34.4749L32.7282 7.76462C32.4318 7.88287 32.1174 7.93431 31.8031 7.91596C31.4889 7.89762 31.181 7.80985 30.8972 7.65773C30.6133 7.5056 30.3592 7.29211 30.1494 7.02956C29.9395 6.767 29.7782 6.46056 29.6745 6.12789L11.6376 13.299V13.3267H6.38503C6.23148 13.3269 6.07818 13.313 5.92667 13.2851L5.76562 12.7858L26.8501 4.39407L34.0351 1.53673Z" fill="#36CE94"/>
<path d="M3.35009 10.5318C3.47322 11.2324 3.78699 11.8732 4.24834 12.3662C4.70969 12.8591 5.29601 13.1801 5.92681 13.2851C6.07831 13.313 6.23162 13.3269 6.38516 13.3267H35.497C35.8253 13.3278 36.1398 13.4743 36.3719 13.7342C36.604 13.9941 36.7349 14.3463 36.7358 14.7138V23.7297H29.303C28.9748 23.7308 28.6602 23.8772 28.4281 24.1371C28.196 24.397 28.0652 24.7492 28.0642 25.1167V29.2779C28.0652 29.6454 28.196 29.9976 28.4281 30.2575C28.6602 30.5174 28.9748 30.6639 29.303 30.665H36.7358V38.2938C36.7358 39.1329 35.6271 40.3744 34.2582 40.3744H25.5866V29.2779C25.5856 28.9104 25.4548 28.5582 25.2227 28.2983C24.9906 28.0384 24.6761 27.8919 24.3478 27.8908H4.52696C4.19871 27.8919 3.88418 28.0384 3.65207 28.2983C3.41997 28.5582 3.28913 28.9104 3.28815 29.2779V40.3744C2.63105 40.3744 2.00086 40.0821 1.53622 39.5618C1.07158 39.0416 0.810547 38.336 0.810547 37.6002V10.5526C0.810547 9.449 1.2021 8.39059 1.89906 7.61021C2.59602 6.82984 3.5413 6.39143 4.52696 6.39143H6.51524C5.72927 6.37733 4.96635 6.68884 4.37301 7.26615C3.77967 7.84346 3.39773 8.64586 3.30054 9.51925C3.26995 9.8576 3.28667 10.1992 3.35009 10.5318Z" fill="#D32416"/>
<path d="M32.7283 7.76462L34.475 13.3267H11.6377V13.299L29.6747 6.12789C29.7783 6.46057 29.9397 6.767 30.1495 7.02956C30.3593 7.29211 30.6135 7.5056 30.8973 7.65773C31.1811 7.80986 31.489 7.89762 31.8033 7.91596C32.1175 7.93431 32.4319 7.88287 32.7283 7.76462Z" fill="#2FB380"/>
<path d="M31.1612 28.5844C31.8453 28.5844 32.4 27.9634 32.4 27.1973C32.4 26.4313 31.8453 25.8103 31.1612 25.8103C30.477 25.8103 29.9224 26.4313 29.9224 27.1973C29.9224 27.9634 30.477 28.5844 31.1612 28.5844Z" fill="#2B2B37"/>
<path d="M13.5826 6.39143L25.5866 1.53673L26.8254 4.31084L26.8502 4.39407L5.76576 12.7858L5.92681 13.2851C5.29601 13.1801 4.7097 12.8591 4.24834 12.3662C3.78699 11.8732 3.47322 11.2324 3.3501 10.5318L13.5826 6.39143Z" fill="#2FB380"/>
<path d="M13.5826 6.39143L3.35005 10.5318C3.28663 10.1992 3.26991 9.8576 3.3005 9.51925C3.39768 8.64586 3.77962 7.84346 4.37297 7.26615C4.96631 6.68884 5.72922 6.37733 6.51519 6.39143H13.5826Z" fill="#BD6F08"/>
<path d="M25.5865 40.3744V43.1485C25.5856 43.516 25.4547 43.8682 25.2226 44.1281C24.9905 44.388 24.676 44.5345 24.3477 44.5355H4.52689C4.19864 44.5345 3.88411 44.388 3.65201 44.1281C3.4199 43.8682 3.28907 43.516 3.28809 43.1485V34.1326H25.5865V40.3744Z" fill="#D32416"/>
<path d="M25.5865 32.052V34.1326H24.9671H3.90749H3.28809V32.052H3.90749H24.9671H25.5865Z" fill="#EDF4FA"/>
<path d="M25.5865 29.2779V32.052H3.28809V29.2779C3.28907 28.9104 3.4199 28.5582 3.65201 28.2983C3.88411 28.0384 4.19864 27.8919 4.52689 27.8908H24.3477C24.676 27.8919 24.9905 28.0384 25.2226 28.2983C25.4547 28.5582 25.5856 28.9104 25.5865 29.2779Z" fill="#CB3541"/>
<path d="M24.3477 42.455H17.5343C15.2303 42.4534 12.9834 41.6523 11.1027 40.1619C9.22213 38.6715 7.80031 36.5651 7.03299 34.1326H3.28809V43.1485C3.28907 43.516 3.4199 43.8682 3.65201 44.1281C3.88411 44.388 4.19864 44.5345 4.52689 44.5355H24.3477C24.676 44.5345 24.9905 44.388 25.2226 44.1281C25.4547 43.8682 25.5856 43.516 25.5865 43.1485V41.0679C25.5865 41.4358 25.456 41.7886 25.2237 42.0487C24.9914 42.3088 24.6763 42.455 24.3477 42.455Z" fill="#FF1300"/>
<path d="M7.03299 34.1326C6.81927 33.456 6.65845 32.7598 6.55233 32.052H3.28809V34.1326H7.03299Z" fill="#C1CFE8"/>
<path d="M6.55233 32.052C6.44503 31.3649 6.38909 30.669 6.38509 29.9714V27.8908H4.52689C4.19864 27.8919 3.88411 28.0384 3.65201 28.2983C3.4199 28.5582 3.28907 28.9104 3.28809 29.2779V32.052H6.55233Z" fill="#A81E29"/>
<path d="M26.8254 4.31085L26.3225 3.18456L7.51124 10.7905C7.20911 10.9126 6.87643 10.8986 6.58337 10.7513C6.29031 10.6041 6.05979 10.3352 5.94044 10.0013L5.77877 9.54907L3.3501 10.5318C3.47322 11.2324 3.78699 11.8732 4.24834 12.3662C4.7097 12.8591 5.29601 13.1801 5.92681 13.2851L5.76576 12.7858L26.8502 4.39407L26.8254 4.31085Z" fill="#2AA173"/>
<path d="M16.8009 11.2461H9.63379L5.76562 12.7858L5.92667 13.2851C6.07818 13.313 6.23148 13.3269 6.38503 13.3267H11.6376V13.299L16.8009 11.2461Z" fill="#2FB380"/>
<path d="M39.213 18.0289L37.0835 11.2461H33.8242L34.4777 13.3267H35.4966C35.8249 13.3278 36.1394 13.4743 36.3715 13.7342C36.6036 13.9941 36.7344 14.3463 36.7354 14.7138V19.0206L39.213 18.0289Z" fill="#2FB380"/>
<path d="M16.801 11.2461L11.6377 13.299V13.3267H34.475L33.8216 11.2461H16.801Z" fill="#2AA173"/>
<path d="M38.5938 29.2779H32.3998C32.1364 29.2772 31.8762 29.2134 31.6367 29.0908C31.3972 28.9682 31.1839 28.7896 31.0111 28.567C30.7108 28.5284 30.4337 28.3675 30.2326 28.1149C30.0315 27.8623 29.9203 27.5357 29.9203 27.1973C29.9203 26.8589 30.0315 26.5323 30.2326 26.2797C30.4337 26.0272 30.7108 25.8662 31.0111 25.8276C31.1839 25.605 31.3972 25.4264 31.6367 25.3038C31.8762 25.1812 32.1364 25.1174 32.3998 25.1167H36.7356C37.0641 25.1167 37.3792 24.9706 37.6116 24.7105C37.8439 24.4503 37.9744 24.0975 37.9744 23.7297V21.6491H36.7356V23.7297H29.3028C28.9745 23.7308 28.66 23.8772 28.4279 24.1371C28.1958 24.397 28.0649 24.7492 28.064 25.1167V29.2779C28.0649 29.6454 28.1958 29.9976 28.4279 30.2575C28.66 30.5174 28.9745 30.6639 29.3028 30.665H37.9744C38.3026 30.6639 38.6172 30.5174 38.8493 30.2575C39.0814 29.9976 39.2122 29.6454 39.2132 29.2779V28.5844C39.2132 28.7683 39.1479 28.9447 39.0318 29.0748C38.9156 29.2048 38.7581 29.2779 38.5938 29.2779Z" fill="#CB3541"/>
<path d="M29.9224 32.7455H36.7358V30.665H29.303C29.0848 30.6635 28.871 30.5967 28.6836 30.4715V31.3585C28.6836 31.7264 28.8141 32.0792 29.0464 32.3393C29.2788 32.5994 29.5938 32.7455 29.9224 32.7455Z" fill="#FF1300"/>
<path d="M3.28815 32.052V29.2779C3.28913 28.9104 3.41997 28.5582 3.65207 28.2983C3.88418 28.0384 4.19871 27.8919 4.52696 27.8908H5.76576V13.2435C5.16894 13.1091 4.62102 12.7799 4.19112 12.2973C3.76121 11.8147 3.46856 11.2004 3.35009 10.5318C3.28667 10.1992 3.26995 9.8576 3.30054 9.51925C3.39773 8.64586 3.77967 7.84346 4.37301 7.26615C4.96635 6.68884 5.72927 6.37733 6.51524 6.39143H4.52696C3.5413 6.39143 2.59602 6.82984 1.89906 7.61021C1.2021 8.39059 0.810547 9.449 0.810547 10.5526V37.6002C0.810547 38.336 1.07158 39.0416 1.53622 39.5618C2.00086 40.0821 2.63105 40.3744 3.28815 40.3744V32.052Z" fill="#FF1300"/>
<path d="M34.8775 37.6003H29.9222C29.2651 37.6003 28.6349 37.308 28.1703 36.7877C27.7057 36.2675 27.4446 35.5619 27.4446 34.8261V31.3585C27.4446 30.9906 27.3141 30.6378 27.0818 30.3777C26.8495 30.1176 26.5344 29.9714 26.2058 29.9714H25.5864V40.3744H34.2581C35.6269 40.3744 36.7357 39.133 36.7357 38.2938V35.5197C36.7357 36.0715 36.5399 36.6007 36.1914 36.9909C35.8429 37.381 35.3703 37.6003 34.8775 37.6003Z" fill="#FF1300"/>
<path d="M27.4448 39.6808H28.6836V41.067H27.4448V39.6808Z" fill="black"/>
<path d="M37.9744 20.9556H37.355V19.5075L39.4207 18.6856C39.5753 18.6241 39.7017 18.4965 39.7723 18.3307C39.8429 18.1649 39.8519 17.9746 39.7973 17.8014L34.6166 1.30649C34.5896 1.22036 34.5476 1.14106 34.4931 1.07315C34.4386 1.00524 34.3726 0.950045 34.299 0.910739C34.2254 0.871433 34.1456 0.848787 34.0641 0.844102C33.9827 0.839417 33.9012 0.852784 33.8244 0.883437L27.1696 3.53064L26.1438 1.22673C26.0759 1.07387 25.9599 0.95445 25.8182 0.89136C25.6765 0.828271 25.5189 0.825943 25.3758 0.884824L3.92343 9.5581C4.01178 8.8623 4.32438 8.22673 4.80233 7.77117C5.28028 7.31561 5.89055 7.07154 6.51811 7.08497H8.86254V5.69792H4.52673C3.3772 5.69938 2.27513 6.21133 1.4623 7.12145C0.649458 8.03156 0.192229 9.26552 0.190918 10.5526L0.190918 37.6003C0.191819 38.3993 0.438734 39.1736 0.890048 39.7927C1.34136 40.4117 1.96948 40.8376 2.66852 40.9985V43.1485C2.66852 43.7003 2.8643 44.2295 3.21278 44.6197C3.56126 45.0099 4.0339 45.2291 4.52673 45.2291H24.3476C24.8404 45.2291 25.313 45.0099 25.6615 44.6197C26.01 44.2295 26.2058 43.7003 26.2058 43.1485V29.2779C26.2058 28.7261 26.01 28.1969 25.6615 27.8067C25.313 27.4165 24.8404 27.1973 24.3476 27.1973H4.52673C4.0339 27.1973 3.56126 27.4165 3.21278 27.8067C2.8643 28.1969 2.66852 28.7261 2.66852 29.2779V39.5532C2.30747 39.4103 1.99467 39.146 1.77292 38.7964C1.55118 38.4468 1.43131 38.029 1.42972 37.6003V10.5526C1.43174 9.83899 1.63062 9.14349 1.99917 8.56126C2.36771 7.97903 2.88792 7.53851 3.48861 7.29997C3.03532 7.91107 2.75498 8.65958 2.68339 9.44991C2.63234 10.0283 2.69009 10.6123 2.85292 11.1643C3.01575 11.7162 3.28004 12.2238 3.62877 12.6544C3.9775 13.085 4.40292 13.429 4.87763 13.6642C5.35234 13.8995 5.8658 14.0208 6.38493 14.0203H35.4968C35.6611 14.0203 35.8186 14.0933 35.9348 14.2234C36.051 14.3535 36.1162 14.5299 36.1162 14.7138V23.0361H29.3028C28.81 23.0361 28.3373 23.2553 27.9888 23.6455C27.6404 24.0357 27.4446 24.5649 27.4446 25.1167V29.2779C27.4446 29.8297 27.6404 30.3589 27.9888 30.7491C28.3373 31.1393 28.81 31.3585 29.3028 31.3585H36.1162V38.2938C36.1162 38.7099 35.3314 39.6808 34.258 39.6808H29.9222V41.0679H34.258C35.9261 41.0679 37.355 39.5421 37.355 38.2938V31.3585H37.9744C38.4672 31.3585 38.9399 31.1393 39.2884 30.7491C39.6368 30.3589 39.8326 29.8297 39.8326 29.2779V23.0361C39.8326 22.4843 39.6368 21.9551 39.2884 21.5649C38.9399 21.1748 38.4672 20.9556 37.9744 20.9556ZM3.90733 29.2779C3.90733 29.094 3.97259 28.9176 4.08875 28.7875C4.20491 28.6574 4.36245 28.5844 4.52673 28.5844H24.3476C24.5119 28.5844 24.6694 28.6574 24.7856 28.7875C24.9017 28.9176 24.967 29.094 24.967 29.2779V31.3585H3.90733V29.2779ZM3.90733 32.7455H24.967V33.4391H3.90733V32.7455ZM3.90733 34.8261H24.967V43.1485C24.967 43.3324 24.9017 43.5088 24.7856 43.6389C24.6694 43.7689 24.5119 43.842 24.3476 43.842H4.52673C4.36245 43.842 4.20491 43.7689 4.08875 43.6389C3.97259 43.5088 3.90733 43.3324 3.90733 43.1485V34.8261ZM15.1668 12.6332L29.3567 6.98788C29.6603 7.54835 30.1032 7.99767 30.6312 8.28094C31.1592 8.56421 31.7494 8.66917 32.3298 8.583L33.5996 12.6332H15.1668ZM35.4968 12.6332H34.9127L33.3116 7.53507C33.2845 7.44894 33.2425 7.36965 33.188 7.30173C33.1335 7.23382 33.0675 7.17863 32.9939 7.13932C32.9203 7.10002 32.8405 7.07737 32.7591 7.07269C32.6776 7.068 32.5962 7.08137 32.5193 7.11202C32.3012 7.19969 32.0696 7.2379 31.8381 7.22445C31.6066 7.211 31.3798 7.14614 31.1709 7.03365C30.9591 6.92097 30.7694 6.76227 30.6129 6.56677C30.4564 6.37127 30.3361 6.14288 30.2591 5.89488C30.2321 5.80888 30.1902 5.7297 30.1357 5.66187C30.0813 5.59403 30.0155 5.53888 29.942 5.49957C29.7933 5.4206 29.6228 5.41063 29.4676 5.47182L11.464 12.6332H7.98918L9.83252 11.8995L9.41752 10.5928L5.55803 12.129C5.45645 12.1728 5.36739 12.2466 5.30036 12.3426C4.76445 12.0641 4.34279 11.5684 4.1204 10.9556L25.2767 2.3981L25.9933 3.99877L12.906 9.20578L13.321 10.5124L33.6541 2.42307L38.4235 17.6114L37.355 18.0351V14.7138C37.355 14.162 37.1592 13.6328 36.8108 13.2426C36.4623 12.8524 35.9896 12.6332 35.4968 12.6332ZM38.5938 29.2779C38.5938 29.4618 38.5286 29.6382 38.4124 29.7683C38.2962 29.8984 38.1387 29.9714 37.9744 29.9714H29.3028C29.1385 29.9714 28.981 29.8984 28.8648 29.7683C28.7486 29.6382 28.6834 29.4618 28.6834 29.2779V25.1167C28.6834 24.9328 28.7486 24.7564 28.8648 24.6263C28.981 24.4963 29.1385 24.4232 29.3028 24.4232H36.7356C36.8999 24.4232 37.0574 24.3501 37.1736 24.2201C37.2898 24.09 37.355 23.9136 37.355 23.7297V22.3426H37.9744C38.1387 22.3426 38.2962 22.4157 38.4124 22.5457C38.5286 22.6758 38.5938 22.8522 38.5938 23.0361V29.2779Z" fill="black"/>
<path d="M31.1609 25.1167C30.7934 25.1167 30.4342 25.2388 30.1286 25.4674C29.823 25.696 29.5848 26.0209 29.4442 26.4011C29.3035 26.7813 29.2667 27.1996 29.3384 27.6032C29.4101 28.0068 29.5871 28.3775 29.847 28.6685C30.1069 28.9595 30.438 29.1576 30.7984 29.2379C31.1589 29.3182 31.5325 29.277 31.872 29.1195C32.2116 28.962 32.5018 28.6954 32.706 28.3532C32.9102 28.0111 33.0191 27.6088 33.0191 27.1973C33.0191 26.6455 32.8234 26.1163 32.4749 25.7261C32.1264 25.3359 31.6538 25.1167 31.1609 25.1167ZM31.1609 27.8908C31.0384 27.8908 30.9187 27.8502 30.8168 27.774C30.715 27.6978 30.6356 27.5894 30.5887 27.4627C30.5418 27.336 30.5295 27.1965 30.5534 27.062C30.5773 26.9275 30.6363 26.8039 30.723 26.7069C30.8096 26.6099 30.92 26.5439 31.0401 26.5171C31.1603 26.4903 31.2848 26.5041 31.398 26.5566C31.5112 26.6091 31.6079 26.698 31.676 26.812C31.744 26.9261 31.7803 27.0601 31.7803 27.1973C31.7803 27.3812 31.7151 27.5576 31.5989 27.6877C31.4828 27.8178 31.3252 27.8908 31.1609 27.8908Z" fill="black"/>
<path d="M10.5117 10.1541L11.75 9.66107L12.1649 10.9672L10.9266 11.4603L10.5117 10.1541Z" fill="black"/>
</svg>
